:SAMPLES-PER-SECOND 30
:FULLY-SPECIFIED
:DEGREES
1726
root  -26.0197 21.8291 8.16395 59.6709 -72.9997 -67.6121
RightUpLeg  -47.3268 -35.1016 -16.7341
RightLeg  118.627 1.66492 -2.09895
RightFoot  -10.7457 -0.0855206 7.62
RightToes  3.49245e-010 0 -3.6325e-017
Spine  56.8089 -5.76531 6.64994
Spine1  -0.296997 -2.88399 1.27568
HEad  -38.4229 1.60372 -0.480811
LeftShoulder1  0.257947 -4.14751 5.79433
LeftArm  -46.2189 -40.8647 -19.3725
LeftForeArm  5.72846 -70.8572 -35.7135
LeftHand  -0.308696 0.599291 7.48563
RightShoulder  0.354435 0.318423 0.930848
RightArm  -41.6376 10.0448 15.0002
RightForeArm  45.9896 76.9803 108.788
RightHand  -0.855519 5.0177 -9.81446
LeftUpLeg  -74.667 4.74935 25.7177
LeftLeg  112.975 3.19161 -7.46051
LeftFoot  -28.1073 0.0311298 -0.934653
LeftToes  -2.21735e-009 9.83027e-011 -4.04511e-011
1727
root  -26.3328 22.0091 7.87729 61.9883 -72.7068 -65.7188
RightUpLeg  -57.4913 -35.1685 -12.51
RightLeg  119.436 -0.287517 1.21581
RightFoot  -6.33766 -0.18557 2.78661
RightToes  3.49245e-010 0 -3.6325e-017
Spine  53.0392 -5.06918 6.39377
Spine1  -0.156662 -2.30223 -0.263122
HEad  -38.5526 1.89091 0.522023
LeftShoulder1  0.237027 -4.2597 6.14383
LeftArm  -46.9193 -41.2246 -19.5086
LeftForeArm  5.265 -71.1532 -36.6011
LeftHand  -0.266015 0.373182 6.15982
RightShoulder  0.3888 0.53106 1.36427
RightArm  -42.0552 8.91564 14.4939
RightForeArm  47.6372 76.8705 110.216
RightHand  -0.824112 5.06884 -9.42756
LeftUpLeg  -77.971 7.28317 25.7597
LeftLeg  112.062 3.48373 -8.42564
LeftFoot  -28.0663 0.0888412 -0.542326
LeftToes  -2.21735e-009 9.83027e-011 -4.04511e-011
1728
root  -26.511 22.236 7.52548 61.6457 -73.4921 -64.0943
RightUpLeg  -64.0163 -33.8899 -10.1499
RightLeg  118.302 -2.73321 5.35023
RightFoot  -10.8293 -0.0910258 4.5601
RightToes  3.49245e-010 0 -3.6325e-017
Spine  53.0231 -3.78417 4.93072
Spine1  -0.588654 -1.57339 -0.745513
HEad  -38.7437 1.64445 1.55299
LeftShoulder1  0.173755 -5.09984 7.34274
LeftArm  -47.913 -40.5925 -19.6178
LeftForeArm  6.17856 -71.5907 -37.6998
LeftHand  -0.308204 0.173332 6.91129
RightShoulder  0.389641 0.616628 1.15426
RightArm  -42.705 7.64174 14.8946
RightForeArm  49.6649 76.6621 112.524
RightHand  -0.862476 5.3949 -9.57038
LeftUpLeg  -77.9263 9.42946 24.8774
LeftLeg  110.876 3.67786 -9.3511
LeftFoot  -28.3517 0.225707 0.356025
LeftToes  -2.21735e-009 9.83027e-011 -4.04511e-011
1729
root  -26.6435 22.374 7.32381 56.4097 -74.3155 -60.4097
RightUpLeg  -67.1585 -33.5749 -9.41726
RightLeg  116.545 -1.30258 3.17643
RightFoot  -14.4293 0.0461559 5.58072
RightToes  3.49245e-010 0 -3.6325e-017
Spine  54.8481 -3.35401 3.72552
Spine1  0.785583 -1.30748 -1.73578
HEad  -39.1338 1.28952 3.25236
LeftShoulder1  0.111111 -5.43747 8.24261
LeftArm  -49.0409 -40.8786 -20.1198
LeftForeArm  7.29558 -71.6112 -37.569
LeftHand  -0.296771 -0.028771 6.43254
RightShoulder  0.376447 0.648076 0.713059
RightArm  -43.9125 6.97139 15.1516
RightForeArm  50.3643 76.5792 113.355
RightHand  -0.94694 5.31698 -10.5458
LeftUpLeg  -75.3059 9.70194 23.3464
LeftLeg  110.287 3.62639 -9.51355
LeftFoot  -29.0438 0.409896 1.5135
LeftToes  -2.21735e-009 9.83027e-011 -4.04511e-011
1730
root  -27.0825 21.7236 7.40241 37.5556 -72.7905 -35.76
RightUpLeg  -77.3015 -40.5221 -9.03151
RightLeg  116.215 -1.49255 3.54647
RightFoot  -18.235 0.16788 4.8245
RightToes  3.49245e-010 0 -3.6325e-017
Spine  49.6598 -7.07009 4.98608
Spine1  0.927155 -4.88925 -3.33826
HEad  -39.4095 0.441885 4.2252
LeftShoulder1  0.124469 -5.80992 8.10889
LeftArm  -49.8946 -41.4198 -18.623
LeftForeArm  6.37528 -71.3153 -36.8647
LeftHand  -0.336475 0.447022 7.90412
RightShoulder  0.378955 0.774427 0.471982
RightArm  -44.9387 6.58034 15.0722
RightForeArm  50.4594 76.559 113.535
RightHand  -1.01378 6.03912 -10.5852
LeftUpLeg  -84.2769 5.37563 17.7838
LeftLeg  111.891 3.08599 -7.60388
LeftFoot  -28.4379 0.350044 1.18843
LeftToes  -2.21735e-009 9.83027e-011 -4.04511e-011
1731
root  -27.4302 21.0928 7.08116 35.8387 -70.5605 -30.3907
RightUpLeg  -86.7128 -41.2796 -2.2239
RightLeg  114.312 -0.807254 2.44661
RightFoot  -20.7282 0.226684 4.48525
RightToes  3.49245e-010 0 -3.6325e-017
Spine  45.943 -7.23321 6.19838
Spine1  2.24261 -5.30383 -1.91626
HEad  -39.8236 -0.88307 5.76575
LeftShoulder1  0.00129801 -6.4951 9.64956
LeftArm  -51.4182 -40.857 -18.2345
LeftForeArm  5.89054 -71.1941 -36.6066
LeftHand  -0.372396 -0.115731 7.94908
RightShoulder  0.356771 0.426982 0.718959
RightArm  -46.2681 6.46172 14.7995
RightForeArm  52.0217 76.3373 115.561
RightHand  -1.06936 6.08837 -11.1038
LeftUpLeg  -90.3864 5.56991 17.688
LeftLeg  113.398 3.49795 -7.97017
LeftFoot  -27.6963 0.317772 1.05225
LeftToes  -2.21735e-009 9.83027e-011 -4.04511e-011
1732
root  -27.5809 20.5099 6.73681 30.7032 -69.9576 -26.7122
RightUpLeg  -87.8187 -39.7028 -0.390416
RightLeg  110.872 -0.429274 1.91683
RightFoot  -21.6584 0.160832 3.17875
RightToes  3.49245e-010 0 -3.6325e-017
Spine  48.1891 -6.53484 5.96769
Spine1  2.77901 -5.13043 -0.109588
HEad  -39.8136 -2.53561 6.46011
LeftShoulder1  -0.0612091 -7.01836 10.3223
LeftArm  -52.4857 -40.6422 -17.4901
LeftForeArm  5.77656 -71.0055 -36.1044
LeftHand  -0.36387 -0.721966 7.01723
RightShoulder  0.335089 0.277134 0.46948
RightArm  -47.7386 5.58834 14.413
RightForeArm  54.7687 76.1028 117.658
RightHand  -1.08575 6.53354 -10.8653
LeftUpLeg  -90.6901 5.86717 17.213
LeftLeg  115.011 4.13804 -8.6548
LeftFoot  -27.7475 0.327061 1.11079
LeftToes  -2.21735e-009 9.83027e-011 -4.04511e-011
1733
root  -27.9977 19.4731 6.49029 24.438 -68.3473 -19.1433
RightUpLeg  -91.5366 -40.2064 -0.440722
RightLeg  111.162 0.0414858 0.841581
RightFoot  -20.0693 -0.103899 0.192921
RightToes  3.49245e-010 0 -3.6325e-017
Spine  46.4245 -6.6215 6.40644
Spine1  3.65538 -5.88652 1.44989
HEad  -39.6355 -3.94854 6.97289
LeftShoulder1  -0.136625 -7.46142 11.0911
LeftArm  -52.6415 -39.8827 -17.3456
LeftForeArm  5.15246 -70.8792 -35.8674
LeftHand  -0.401552 -0.63319 7.8531
RightShoulder  0.299025 0.328507 -0.726792
RightArm  -48.7816 3.7126 14.4471
RightForeArm  59.2702 75.5072 121.955
RightHand  -1.14582 6.78393 -11.2228
LeftUpLeg  -94.9138 5.60332 15.5036
LeftLeg  117.858 5.08285 -9.3437
LeftFoot  -27.8494 0.296469 0.887559
LeftToes  -2.21735e-009 9.83027e-011 -4.04511e-011
1734
root  -28.2126 18.4823 5.94647 11.4646 -66.2358 -11.7598
RightUpLeg  -84.2752 -41.005 -10.7115
RightLeg  117.091 0.604764 -0.332525
RightFoot  -23.736 0.161336 3.02272
RightToes  3.49245e-010 0 -3.6325e-017
Spine  52.9691 -6.65849 4.89329
Spine1  2.39389 -6.35371 3.83319
HEad  -39.4796 -6.03647 7.10945
LeftShoulder1  -0.13676 -7.70188 11.0609
LeftArm  -52.1226 -39.2183 -16.995
LeftForeArm  4.41116 -70.8358 -35.8736
LeftHand  -0.408223 -0.684551 7.91857
RightShoulder  0.274988 0.645162 -2.09754
RightArm  -49.4153 1.06299 13.7816
RightForeArm  63.011 74.5833 127.129
RightHand  -1.1994 7.23698 -11.3292
LeftUpLeg  -92.3928 4.48639 13.9462
LeftLeg  120.584 6.01708 -9.81045
LeftFoot  -27.5753 0.307429 0.993624
LeftToes  -2.21735e-009 9.83027e-011 -4.04511e-011
1735
root  -28.8785 16.9991 5.75245 16.9854 -65.5478 -14.4153
RightUpLeg  -92.1641 -40.6273 -7.67885
RightLeg  122.63 1.40957 -1.35721
RightFoot  -23.2658 -0.108681 0.499491
RightToes  3.49245e-010 0 -3.6325e-017
Spine  47.434 -7.08285 8.06661
Spine1  3.86436 -5.40796 2.78618
HEad  -39.6037 -7.12649 7.49609
LeftShoulder1  -0.194148 -7.2081 11.7345
LeftArm  -51.7541 -38.1311 -16.2567
LeftForeArm  4.35956 -71.0947 -36.583
LeftHand  -0.400185 -0.956259 7.45235
RightShoulder  0.26076 0.743925 -2.65873
RightArm  -50.2767 -0.110211 13.204
RightForeArm  64.6725 74.0805 129.454
RightHand  -1.16534 6.93548 -11.2767
LeftUpLeg  -100.106 8.02128 16.1018
LeftLeg  125.153 8.03695 -10.9215
LeftFoot  -27.4183 0.400003 1.66035
LeftToes  -2.21735e-009 9.83027e-011 -4.04511e-011
